# xmcd
# 
# Track frame offsets:
#     150
#     23776
#     47641
#     68601
#     93688
#     116355
#     142238
#     165792
#     187589
#     217081
# 
# Disc length: 3201
# 
# Revision: 1
# Processed by: cddbd v1.5.2PL0 Copyright (c) Steve Scherf et al.
# Submitted via: fre:ac v1.0.27
# 
DISCID=810c7f0a
DTITLE=Mercenary - Through Our Darkest Days
DYEAR=2013
DGENRE=Melodic Death Metal
TTITLE0=A New Dawn
TTITLE1=Welcome The Sickness
TTITLE2=Through Our Darkest Days
TTITLE3=Dreamstate Machine
TTITLE4=A Moment Of Clarity
TTITLE5=Beyond This Night
TTITLE6=Starving Eyes
TTITLE7=Generation Hate
TTITLE8=Forever The Unknown
TTITLE9=Holding On To Serenity (Bonus Track)
EXTD=
EXTT0=
EXTT1=
EXTT2=
EXTT3=
EXTT4=
EXTT5=
EXTT6=
EXTT7=
EXTT8=
EXTT9=
PLAYORDER=
